<svg width="230" height="230" viewBox="0 0 230 230" fill="none" xmlns="http://www.w3.org/2000/svg">
<g clip-path="url(#clip0_7_3270)">
<path d="M0 115C0 51.4873 51.4873 0 115 0C178.513 0 230 51.4873 230 115C230 178.513 178.513 230 115 230C51.4873 230 0 178.513 0 115Z" fill="white"/>
<g filter="url(#filter0_i_7_3270)">
<circle cx="115" cy="115" r="116" fill="white"/>
</g>
<path d="M48 198C48 180.327 62.3269 166 80 166H150C167.673 166 182 180.327 182 198V230H48V198Z" fill="url(#paint0_linear_7_3270)"/>
<path d="M146 166C146 170.071 145.198 174.102 143.64 177.863C142.082 181.624 139.799 185.042 136.92 187.92C134.042 190.799 130.624 193.082 126.863 194.64C123.102 196.198 119.071 197 115 197C110.929 197 106.898 196.198 103.137 194.64C99.3757 193.082 95.9583 190.799 93.0797 187.92C90.2011 185.042 87.9176 181.624 86.3597 177.863C84.8018 174.102 84 170.071 84 166L115 166H146Z" fill="#281679"/>
<rect x="92" y="109" width="46" height="80" rx="23" fill="url(#paint1_linear_7_3270)"/>
<rect x="79" y="58" width="72" height="108" rx="36" fill="url(#paint2_linear_7_3270)"/>
<path d="M136 130C136 132.758 135.457 135.489 134.401 138.036C133.346 140.584 131.799 142.899 129.849 144.849C127.899 146.799 125.584 148.346 123.036 149.401C120.489 150.457 117.758 151 115 151C112.242 151 109.511 150.457 106.964 149.401C104.416 148.346 102.101 146.799 100.151 144.849C98.2007 142.899 96.6539 140.584 95.5985 138.036C94.5432 135.489 94 132.758 94 130L115 130H136Z" fill="url(#paint3_linear_7_3270)"/>
<path fill-rule="evenodd" clip-rule="evenodd" d="M126.759 147.399C125.591 148.188 124.345 148.86 123.036 149.401C120.489 150.457 117.758 151 115 151C112.242 151 109.512 150.457 106.964 149.401C105.655 148.86 104.409 148.188 103.241 147.399C105.735 143.548 110.07 141 115 141C119.93 141 124.265 143.548 126.759 147.399Z" fill="#EF5350"/>
<path d="M100 130H130C130 133.314 127.314 136 124 136H106C102.686 136 100 133.314 100 130Z" fill="white"/>
<circle cx="132.5" cy="112.5" r="7.5" fill="black"/>
<circle cx="135.5" cy="110.5" r="2.5" fill="white"/>
<circle cx="134" cy="115" r="1" fill="white"/>
<circle cx="97.5" cy="112.5" r="7.5" fill="black"/>
<circle cx="100.5" cy="110.5" r="2.5" fill="white"/>
<circle cx="99" cy="115" r="1" fill="white"/>
<path d="M87.5406 107.444C86.1912 92.8122 93.0968 76.4613 115.586 81.4354C131.329 74.7944 137.452 102.273 151.5 102L144.373 91.1187L128.71 71.5132L115.586 75.679V72.8101L99.1293 69L80 92.0715L87.5406 107.444Z" fill="#333333"/>
<path fill-rule="evenodd" clip-rule="evenodd" d="M109.426 39.0152L109.428 39.0152C112.183 39.0152 115.276 40.498 115.276 43.0508C115.332 40.3145 118.87 38.8315 121.731 39.0152C130.225 39.5973 140.067 44.7565 146.708 51.5034C160.916 65.9761 161.604 78.1999 161.604 97.2499V116.406V167.57C161.604 167.759 161.597 167.94 161.591 168.119C161.584 168.291 161.578 168.46 161.578 168.628C158.8 167.782 155.863 167.332 152.794 167.332H137.792L135.136 159.846C144.707 153.376 151 142.423 151 130V94C151 74.1177 134.882 58 115 58C95.1178 58 79 74.1177 79 94V130C79 141.512 84.4035 151.762 92.8125 158.352V171.783C92.8125 184.43 82.7583 193.955 73.9476 193.955C76.9374 187.87 76.9375 181.096 76.9375 176.836L69 182.657V154.135V116.432V97.2763C69 78.1998 69.6879 65.976 83.896 51.5297C90.537 44.7828 100.38 39.6237 108.873 39.0416C109.057 39.0152 109.242 39.0152 109.426 39.0152Z" fill="black"/>
<path d="M115.329 48.7515L92.8389 53.9108L76.9904 76.9559V140.88L92.8389 161.332V98.6786C92.8389 81.0309 104.877 71.0294 115.329 79.0463C134.379 67.5369 138.165 102 151.5 102L153.667 76.9559L137.818 53.9108L115.329 48.7515Z" fill="black"/>
<path d="M155 106C155 103.791 153.209 102 151 102V123C153.209 123 155 121.209 155 119V106Z" fill="#FFAB91"/>
</g>
<defs>
<filter id="filter0_i_7_3270" x="-1" y="-17" width="232" height="248" filterUnits="userSpaceOnUse" color-interpolation-filters="sRGB">
<feFlood flood-opacity="0" result="BackgroundImageFix"/>
<feBlend mode="normal" in="SourceGraphic" in2="BackgroundImageFix" result="shape"/>
<feColorMatrix in="SourceAlpha" type="matrix" values="0 0 0 0 0 0 0 0 0 0 0 0 0 0 0 0 0 0 127 0" result="hardAlpha"/>
<feOffset dy="-16"/>
<feGaussianBlur stdDeviation="24"/>
<feComposite in2="hardAlpha" operator="arithmetic" k2="-1" k3="1"/>
<feColorMatrix type="matrix" values="0 0 0 0 0.26481 0 0 0 0 0.12 0 0 0 0 1 0 0 0 0.56 0"/>
<feBlend mode="normal" in2="shape" result="effect1_innerShadow_7_3270"/>
</filter>
<linearGradient id="paint0_linear_7_3270" x1="114.993" y1="166.018" x2="114.993" y2="182.936" gradientUnits="userSpaceOnUse">
<stop stop-color="#5E35B1"/>
<stop offset="1" stop-color="#311B92"/>
</linearGradient>
<linearGradient id="paint1_linear_7_3270" x1="115.007" y1="109.001" x2="115.007" y2="189.443" gradientUnits="userSpaceOnUse">
<stop stop-color="#E64A19"/>
<stop offset="1" stop-color="#FFCCBC"/>
</linearGradient>
<linearGradient id="paint2_linear_7_3270" x1="114.993" y1="130.124" x2="114.993" y2="113.602" gradientUnits="userSpaceOnUse">
<stop stop-color="#FFCCBC"/>
<stop offset="1" stop-color="#FF8A65"/>
</linearGradient>
<linearGradient id="paint3_linear_7_3270" x1="116" y1="130" x2="116" y2="135.5" gradientUnits="userSpaceOnUse">
<stop stop-color="#FF7043"/>
<stop offset="1" stop-color="#FFAB91"/>
</linearGradient>
<clipPath id="clip0_7_3270">
<path d="M0 115C0 51.4873 51.4873 0 115 0C178.513 0 230 51.4873 230 115C230 178.513 178.513 230 115 230C51.4873 230 0 178.513 0 115Z" fill="white"/>
</clipPath>
</defs>
</svg>
