<svg width="230" height="230" viewBox="0 0 230 230" fill="none" xmlns="http://www.w3.org/2000/svg">
<g clip-path="url(#clip0_7_3434)">
<path d="M0 115C0 51.4873 51.4873 0 115 0C178.513 0 230 51.4873 230 115C230 178.513 178.513 230 115 230C51.4873 230 0 178.513 0 115Z" fill="white"/>
<g filter="url(#filter0_i_7_3434)">
<circle cx="115" cy="115" r="116" fill="white"/>
</g>
<path d="M48 198C48 180.327 62.3269 166 80 166H150C167.673 166 182 180.327 182 198V230H48V198Z" fill="url(#paint0_linear_7_3434)"/>
<path d="M146 166C146 170.071 145.198 174.102 143.64 177.863C142.082 181.624 139.799 185.042 136.92 187.92C134.042 190.799 130.624 193.082 126.863 194.64C123.102 196.198 119.071 197 115 197C110.929 197 106.898 196.198 103.137 194.64C99.3757 193.082 95.9583 190.799 93.0797 187.92C90.2011 185.042 87.9176 181.624 86.3597 177.863C84.8018 174.102 84 170.071 84 166L115 166H146Z" fill="#281679"/>
<rect x="92" y="109" width="46" height="80" rx="23" fill="url(#paint1_linear_7_3434)"/>
<rect x="79" y="58" width="72" height="108" rx="36" fill="url(#paint2_linear_7_3434)"/>
<path d="M136 130C136 132.758 135.457 135.489 134.401 138.036C133.346 140.584 131.799 142.899 129.849 144.849C127.899 146.799 125.584 148.346 123.036 149.401C120.489 150.457 117.758 151 115 151C112.242 151 109.511 150.457 106.964 149.401C104.416 148.346 102.101 146.799 100.151 144.849C98.2007 142.899 96.6539 140.584 95.5985 138.036C94.5432 135.489 94 132.758 94 130L115 130H136Z" fill="url(#paint3_linear_7_3434)"/>
<path fill-rule="evenodd" clip-rule="evenodd" d="M126.759 147.399C125.591 148.188 124.345 148.86 123.036 149.401C120.489 150.457 117.758 151 115 151C112.242 151 109.512 150.457 106.964 149.401C105.655 148.86 104.409 148.188 103.241 147.399C105.735 143.548 110.07 141 115 141C119.93 141 124.265 143.548 126.759 147.399Z" fill="#EF5350"/>
<path d="M100 130H130C130 133.314 127.314 136 124 136H106C102.686 136 100 133.314 100 130Z" fill="white"/>
<circle cx="132.5" cy="112.5" r="7.5" fill="black"/>
<circle cx="135.5" cy="110.5" r="2.5" fill="white"/>
<circle cx="134" cy="115" r="1" fill="white"/>
<circle cx="97.5" cy="112.5" r="7.5" fill="black"/>
<circle cx="100.5" cy="110.5" r="2.5" fill="white"/>
<circle cx="99" cy="115" r="1" fill="white"/>
<path d="M151 78L142 78.8512V94.8368C145.355 94.8368 148.044 97.5233 148.044 100.875V111.754V111.78V126.994C148.044 128.644 149.376 129.973 151 130V78Z" fill="#28170B"/>
<path d="M79 78L88 78.8512V94.8368C84.645 94.8368 81.9555 97.5233 81.9555 100.875V111.754V111.78V126.994C81.9555 128.644 80.6243 129.973 79 130V78Z" fill="#28170B"/>
<path d="M115 41C111.233 41 107.76 42.9729 105.889 46.1821C104.794 45.7612 103.618 45.5244 102.443 45.5244C99.0763 45.5244 95.977 47.287 94.2938 50.1542C93.0114 49.5492 91.6221 49.2335 90.2061 49.2335C87.2672 49.2335 84.5152 50.575 82.7252 52.8635C82.0839 52.6794 81.416 52.6005 80.7481 52.6005C76.4733 52.6005 73 56.0201 73 60.2288C73 61.1758 73.1869 62.1226 73.561 63.017L78.958 103C78.958 103 78.9045 87.0069 90.4198 81.0095C96.1106 78.037 104.901 83.1138 115 83.1138C125.072 83.1138 133.889 78.037 139.58 81.0095C151.069 87.0069 150.989 103 150.989 103L156.439 63.0435C156.813 62.1491 157 61.2021 157 60.2288C157 56.0201 153.527 52.6005 149.252 52.6005C148.584 52.6005 147.916 52.6794 147.275 52.8635C145.485 50.575 142.733 49.2335 139.794 49.2335C138.378 49.2335 136.988 49.5492 135.706 50.1542C134.023 47.287 130.897 45.5244 127.557 45.5244C126.382 45.5244 125.206 45.7612 124.111 46.1821C122.214 42.9729 118.74 41 115 41Z" fill="#502D16"/>
<path d="M75 106C75 103.791 76.7909 102 79 102V123C76.7909 123 75 121.209 75 119V106Z" fill="#FFAB91"/>
<path d="M155 106C155 103.791 153.209 102 151 102V123C153.209 123 155 121.209 155 119V106Z" fill="#FFAB91"/>
</g>
<defs>
<filter id="filter0_i_7_3434" x="-1" y="-17" width="232" height="248" filterUnits="userSpaceOnUse" color-interpolation-filters="sRGB">
<feFlood flood-opacity="0" result="BackgroundImageFix"/>
<feBlend mode="normal" in="SourceGraphic" in2="BackgroundImageFix" result="shape"/>
<feColorMatrix in="SourceAlpha" type="matrix" values="0 0 0 0 0 0 0 0 0 0 0 0 0 0 0 0 0 0 127 0" result="hardAlpha"/>
<feOffset dy="-16"/>
<feGaussianBlur stdDeviation="24"/>
<feComposite in2="hardAlpha" operator="arithmetic" k2="-1" k3="1"/>
<feColorMatrix type="matrix" values="0 0 0 0 0.26481 0 0 0 0 0.12 0 0 0 0 1 0 0 0 0.56 0"/>
<feBlend mode="normal" in2="shape" result="effect1_innerShadow_7_3434"/>
</filter>
<linearGradient id="paint0_linear_7_3434" x1="114.993" y1="166.018" x2="114.993" y2="182.936" gradientUnits="userSpaceOnUse">
<stop stop-color="#5E35B1"/>
<stop offset="1" stop-color="#311B92"/>
</linearGradient>
<linearGradient id="paint1_linear_7_3434" x1="115.007" y1="109.001" x2="115.007" y2="189.443" gradientUnits="userSpaceOnUse">
<stop stop-color="#E64A19"/>
<stop offset="1" stop-color="#FFCCBC"/>
</linearGradient>
<linearGradient id="paint2_linear_7_3434" x1="114.993" y1="130.124" x2="114.993" y2="113.602" gradientUnits="userSpaceOnUse">
<stop stop-color="#FFCCBC"/>
<stop offset="1" stop-color="#FF8A65"/>
</linearGradient>
<linearGradient id="paint3_linear_7_3434" x1="116" y1="130" x2="116" y2="135.5" gradientUnits="userSpaceOnUse">
<stop stop-color="#FF7043"/>
<stop offset="1" stop-color="#FFAB91"/>
</linearGradient>
<clipPath id="clip0_7_3434">
<path d="M0 115C0 51.4873 51.4873 0 115 0C178.513 0 230 51.4873 230 115C230 178.513 178.513 230 115 230C51.4873 230 0 178.513 0 115Z" fill="white"/>
</clipPath>
</defs>
</svg>
