<svg width="230" height="230" viewBox="0 0 230 230" fill="none" xmlns="http://www.w3.org/2000/svg">
<g clip-path="url(#clip0_7_3222)">
<path d="M0 115C0 51.4873 51.4873 0 115 0C178.513 0 230 51.4873 230 115C230 178.513 178.513 230 115 230C51.4873 230 0 178.513 0 115Z" fill="white"/>
<g filter="url(#filter0_i_7_3222)">
<circle cx="115" cy="115" r="116" fill="white"/>
</g>
<path d="M48 198C48 180.327 62.3269 166 80 166H150C167.673 166 182 180.327 182 198V230H48V198Z" fill="url(#paint0_linear_7_3222)"/>
<path d="M146 166C146 170.071 145.198 174.102 143.64 177.863C142.082 181.624 139.799 185.042 136.92 187.92C134.042 190.799 130.624 193.082 126.863 194.64C123.102 196.198 119.071 197 115 197C110.929 197 106.898 196.198 103.137 194.64C99.3757 193.082 95.9583 190.799 93.0797 187.92C90.2011 185.042 87.9176 181.624 86.3597 177.863C84.8018 174.102 84 170.071 84 166L115 166H146Z" fill="#F58700"/>
<rect x="92" y="109" width="46" height="80" rx="23" fill="url(#paint1_linear_7_3222)"/>
<rect x="79" y="58" width="72" height="108" rx="36" fill="url(#paint2_linear_7_3222)"/>
<path d="M136 130C136 132.758 135.457 135.489 134.401 138.036C133.346 140.584 131.799 142.899 129.849 144.849C127.899 146.799 125.584 148.346 123.036 149.401C120.489 150.457 117.758 151 115 151C112.242 151 109.511 150.457 106.964 149.401C104.416 148.346 102.101 146.799 100.151 144.849C98.2007 142.899 96.6539 140.584 95.5985 138.036C94.5432 135.489 94 132.758 94 130L115 130H136Z" fill="url(#paint3_linear_7_3222)"/>
<path fill-rule="evenodd" clip-rule="evenodd" d="M126.759 147.399C125.591 148.188 124.345 148.86 123.036 149.401C120.489 150.457 117.758 151 115 151C112.242 151 109.512 150.457 106.964 149.401C105.655 148.86 104.409 148.188 103.241 147.399C105.735 143.548 110.07 141 115 141C119.93 141 124.265 143.548 126.759 147.399Z" fill="#EF5350"/>
<path d="M100 130H130C130 133.314 127.314 136 124 136H106C102.686 136 100 133.314 100 130Z" fill="white"/>
<circle cx="132.5" cy="112.5" r="7.5" fill="black"/>
<circle cx="135.5" cy="110.5" r="2.5" fill="white"/>
<circle cx="134" cy="115" r="1" fill="white"/>
<path d="M121 105C121 102.791 122.791 101 125 101H140C142.209 101 144 102.791 144 105V120C144 122.209 142.209 124 140 124H125C122.791 124 121 122.209 121 120V112.5V105Z" fill="white" fill-opacity="0.5"/>
<path d="M121 112.5V120C121 122.209 122.791 124 125 124H140C142.209 124 144 122.209 144 120V105C144 102.791 142.209 101 140 101H125C122.791 101 121 102.791 121 105V112.5ZM121 112.5H115" stroke="#6D4C41" stroke-width="3"/>
<circle cx="97.5" cy="112.5" r="7.5" fill="black"/>
<circle cx="100.5" cy="110.5" r="2.5" fill="white"/>
<circle cx="99" cy="115" r="1" fill="white"/>
<path d="M86 105C86 102.791 87.7909 101 90 101H105C107.209 101 109 102.791 109 105V112.5V120C109 122.209 107.209 124 105 124H90C87.7909 124 86 122.209 86 120V105Z" fill="white" fill-opacity="0.5"/>
<path d="M109 112.5V105C109 102.791 107.209 101 105 101H90C87.7909 101 86 102.791 86 105V120C86 122.209 87.7909 124 90 124H105C107.209 124 109 122.209 109 120V112.5ZM109 112.5H115" stroke="#6D4C41" stroke-width="3"/>
<path d="M151 78L142 78.8512V94.8369C145.355 94.8369 148.044 97.5233 148.044 100.875V111.754V111.78V126.994C148.044 128.644 149.376 129.973 151 130V78Z" fill="#1A1A1A"/>
<path d="M109.645 86.2332C127.266 80.7299 142.241 84.3811 155.629 93.4828L153.804 85.1484L143.776 75.7822L128.642 74.618L111.523 78.2692L109.645 86.2332Z" fill="#333333"/>
<path d="M79 78L88 78.8512V94.8369C84.645 94.8369 81.9555 97.5233 81.9555 100.875V111.754V111.78V126.994C81.9555 128.644 80.6243 129.973 79 130V78Z" fill="#1A1A1A"/>
<path d="M109.142 44.0058C91.3092 43.7147 73 54.4304 73 72.8189C73 84.2489 82.2604 93.4828 93.664 93.4828C100.649 93.4828 106.126 89.8051 109.618 86.2332C114.354 81.4178 118.958 78.6397 123.774 77.3962C125.917 76.8406 128.139 76.5495 130.335 76.5495C142.268 76.5495 151.423 83.4815 155.576 93.4828C155.576 63.8759 135.706 46.4928 112.661 44.191C111.523 44.0851 110.333 44.0058 109.142 44.0058Z" fill="black"/>
<path d="M75 106C75 103.791 76.7909 102 79 102V123C76.7909 123 75 121.209 75 119V106Z" fill="#FFAB91"/>
<path d="M155 106C155 103.791 153.209 102 151 102V123C153.209 123 155 121.209 155 119V106Z" fill="#FFAB91"/>
</g>
<defs>
<filter id="filter0_i_7_3222" x="-1" y="-17" width="232" height="248" filterUnits="userSpaceOnUse" color-interpolation-filters="sRGB">
<feFlood flood-opacity="0" result="BackgroundImageFix"/>
<feBlend mode="normal" in="SourceGraphic" in2="BackgroundImageFix" result="shape"/>
<feColorMatrix in="SourceAlpha" type="matrix" values="0 0 0 0 0 0 0 0 0 0 0 0 0 0 0 0 0 0 127 0" result="hardAlpha"/>
<feOffset dy="-16"/>
<feGaussianBlur stdDeviation="24"/>
<feComposite in2="hardAlpha" operator="arithmetic" k2="-1" k3="1"/>
<feColorMatrix type="matrix" values="0 0 0 0 0.26481 0 0 0 0 0.12 0 0 0 0 1 0 0 0 0.56 0"/>
<feBlend mode="normal" in2="shape" result="effect1_innerShadow_7_3222"/>
</filter>
<linearGradient id="paint0_linear_7_3222" x1="114.993" y1="166.002" x2="114.993" y2="182.927" gradientUnits="userSpaceOnUse">
<stop stop-color="#FFD400"/>
<stop offset="1" stop-color="#FF8D00"/>
</linearGradient>
<linearGradient id="paint1_linear_7_3222" x1="115.007" y1="109.001" x2="115.007" y2="189.443" gradientUnits="userSpaceOnUse">
<stop stop-color="#E64A19"/>
<stop offset="1" stop-color="#FFCCBC"/>
</linearGradient>
<linearGradient id="paint2_linear_7_3222" x1="114.993" y1="130.124" x2="114.993" y2="113.602" gradientUnits="userSpaceOnUse">
<stop stop-color="#FFCCBC"/>
<stop offset="1" stop-color="#FF8A65"/>
</linearGradient>
<linearGradient id="paint3_linear_7_3222" x1="116" y1="130" x2="116" y2="135.5" gradientUnits="userSpaceOnUse">
<stop stop-color="#FF7043"/>
<stop offset="1" stop-color="#FFAB91"/>
</linearGradient>
<clipPath id="clip0_7_3222">
<path d="M0 115C0 51.4873 51.4873 0 115 0C178.513 0 230 51.4873 230 115C230 178.513 178.513 230 115 230C51.4873 230 0 178.513 0 115Z" fill="white"/>
</clipPath>
</defs>
</svg>
