<svg width="230" height="230" viewBox="0 0 230 230" fill="none" xmlns="http://www.w3.org/2000/svg">
<g clip-path="url(#clip0_7_4435)">
<path d="M0 115C0 51.4873 51.4873 0 115 0C178.513 0 230 51.4873 230 115C230 178.513 178.513 230 115 230C51.4873 230 0 178.513 0 115Z" fill="white"/>
<g filter="url(#filter0_i_7_4435)">
<circle cx="115" cy="115" r="116" fill="white"/>
</g>
<path d="M48 198C48 180.327 62.3269 166 80 166H150C167.673 166 182 180.327 182 198V230H48V198Z" fill="url(#paint0_linear_7_4435)"/>
<path d="M146 166C146 170.071 145.198 174.102 143.64 177.863C142.082 181.624 139.799 185.042 136.92 187.92C134.042 190.799 130.624 193.082 126.863 194.64C123.102 196.198 119.071 197 115 197C110.929 197 106.898 196.198 103.137 194.64C99.3757 193.082 95.9583 190.799 93.0797 187.92C90.2011 185.042 87.9176 181.624 86.3597 177.863C84.8018 174.102 84 170.071 84 166L115 166H146Z" fill="#390047"/>
<rect x="92" y="109" width="46" height="80" rx="23" fill="url(#paint1_linear_7_4435)"/>
<rect x="79" y="58" width="72" height="108" rx="36" fill="url(#paint2_linear_7_4435)"/>
<path d="M136 130C136 132.758 135.457 135.489 134.401 138.036C133.346 140.584 131.799 142.899 129.849 144.849C127.899 146.799 125.584 148.346 123.036 149.401C120.489 150.457 117.758 151 115 151C112.242 151 109.511 150.457 106.964 149.401C104.416 148.346 102.101 146.799 100.151 144.849C98.2007 142.899 96.6539 140.584 95.5985 138.036C94.5432 135.489 94 132.758 94 130L115 130H136Z" fill="url(#paint3_linear_7_4435)"/>
<path fill-rule="evenodd" clip-rule="evenodd" d="M126.759 147.399C125.591 148.188 124.345 148.86 123.036 149.401C120.489 150.457 117.758 151 115 151C112.242 151 109.512 150.457 106.964 149.401C105.655 148.86 104.409 148.188 103.241 147.399C105.735 143.548 110.07 141 115 141C119.93 141 124.265 143.548 126.759 147.399Z" fill="#EF5350"/>
<path d="M100 130H130C130 133.314 127.314 136 124 136H106C102.686 136 100 133.314 100 130Z" fill="white"/>
<circle cx="132.5" cy="112.5" r="7.5" fill="black"/>
<circle cx="135.5" cy="110.5" r="2.5" fill="white"/>
<circle cx="134" cy="115" r="1" fill="white"/>
<circle cx="97.5" cy="112.5" r="7.5" fill="black"/>
<circle cx="100.5" cy="110.5" r="2.5" fill="white"/>
<circle cx="99" cy="115" r="1" fill="white"/>
<path fill-rule="evenodd" clip-rule="evenodd" d="M79 117.324L72.3296 122.046V167.211C72.3296 184.409 79.1823 195.495 91.1944 200.469V166.973L95.1631 161.787V160.046C85.4238 153.603 79 142.552 79 130V117.324ZM132.205 161.63V161.787L136.174 166.973V200.469C148.186 195.495 155.038 184.409 155.038 167.211V122.046L151 119.187V130C151 143.651 143.402 155.527 132.205 161.63Z" fill="#961717"/>
<path d="M125.14 85.8782C130.67 88.18 136.147 92.0961 139.243 97.4671C143.899 105.51 146.81 130.725 148 141.547L152.234 109.373L141.73 81.2216L122.997 76.9619L125.14 85.8782Z" fill="#731212"/>
<path d="M125.855 81.5921C120.404 122.999 83.0187 134.641 60 134.641C73.335 115.062 58.1215 80.2423 68.89 61.5892C94.0254 18.0652 143.503 38.5175 143.503 60.9277C147.948 61.3511 153.61 63.5736 156.15 67.0131C167.976 87.4654 157.129 119.851 148 141.547C148.08 126.121 147.286 112.442 143.688 97.5198C142.233 91.4608 131.834 83.2061 125.855 81.5921Z" fill="#B71C1C"/>
<path d="M155 106C155 103.791 153.209 102 151 102V123C153.209 123 155 121.209 155 119V106Z" fill="#FFAB91"/>
</g>
<defs>
<filter id="filter0_i_7_4435" x="-1" y="-17" width="232" height="248" filterUnits="userSpaceOnUse" color-interpolation-filters="sRGB">
<feFlood flood-opacity="0" result="BackgroundImageFix"/>
<feBlend mode="normal" in="SourceGraphic" in2="BackgroundImageFix" result="shape"/>
<feColorMatrix in="SourceAlpha" type="matrix" values="0 0 0 0 0 0 0 0 0 0 0 0 0 0 0 0 0 0 127 0" result="hardAlpha"/>
<feOffset dy="-16"/>
<feGaussianBlur stdDeviation="24"/>
<feComposite in2="hardAlpha" operator="arithmetic" k2="-1" k3="1"/>
<feColorMatrix type="matrix" values="0 0 0 0 0.26481 0 0 0 0 0.12 0 0 0 0 1 0 0 0 0.56 0"/>
<feBlend mode="normal" in2="shape" result="effect1_innerShadow_7_4435"/>
</filter>
<linearGradient id="paint0_linear_7_4435" x1="115.04" y1="165.965" x2="115.028" y2="182.914" gradientUnits="userSpaceOnUse">
<stop stop-color="#8800AA"/>
<stop offset="1" stop-color="#440055"/>
</linearGradient>
<linearGradient id="paint1_linear_7_4435" x1="115.007" y1="109.001" x2="115.007" y2="189.443" gradientUnits="userSpaceOnUse">
<stop stop-color="#E64A19"/>
<stop offset="1" stop-color="#FFCCBC"/>
</linearGradient>
<linearGradient id="paint2_linear_7_4435" x1="114.993" y1="130.124" x2="114.993" y2="113.602" gradientUnits="userSpaceOnUse">
<stop stop-color="#FFCCBC"/>
<stop offset="1" stop-color="#FF8A65"/>
</linearGradient>
<linearGradient id="paint3_linear_7_4435" x1="116" y1="130" x2="116" y2="135.5" gradientUnits="userSpaceOnUse">
<stop stop-color="#FF7043"/>
<stop offset="1" stop-color="#FFAB91"/>
</linearGradient>
<clipPath id="clip0_7_4435">
<path d="M0 115C0 51.4873 51.4873 0 115 0C178.513 0 230 51.4873 230 115C230 178.513 178.513 230 115 230C51.4873 230 0 178.513 0 115Z" fill="white"/>
</clipPath>
</defs>
</svg>
