<svg width="230" height="230" viewBox="0 0 230 230" fill="none" xmlns="http://www.w3.org/2000/svg">
<g clip-path="url(#clip0_7_4523)">
<path d="M0 115C0 51.4873 51.4873 0 115 0C178.513 0 230 51.4873 230 115C230 178.513 178.513 230 115 230C51.4873 230 0 178.513 0 115Z" fill="white"/>
<g filter="url(#filter0_i_7_4523)">
<circle cx="115" cy="115" r="116" fill="white"/>
</g>
<path d="M48 198C48 180.327 62.3269 166 80 166H150C167.673 166 182 180.327 182 198V230H48V198Z" fill="url(#paint0_linear_7_4523)"/>
<path d="M146 166C146 170.071 145.198 174.102 143.64 177.863C142.082 181.624 139.799 185.042 136.92 187.92C134.042 190.799 130.624 193.082 126.863 194.64C123.102 196.198 119.071 197 115 197C110.929 197 106.898 196.198 103.137 194.64C99.3757 193.082 95.9583 190.799 93.0797 187.92C90.2011 185.042 87.9176 181.624 86.3597 177.863C84.8018 174.102 84 170.071 84 166L115 166H146Z" fill="#4A2999"/>
<rect x="92" y="109" width="46" height="80" rx="23" fill="url(#paint1_linear_7_4523)"/>
<rect x="79" y="58" width="72" height="108" rx="36" fill="url(#paint2_linear_7_4523)"/>
<path d="M136 130C136 132.758 135.457 135.489 134.401 138.036C133.346 140.584 131.799 142.899 129.849 144.849C127.899 146.799 125.584 148.346 123.036 149.401C120.489 150.457 117.758 151 115 151C112.242 151 109.511 150.457 106.964 149.401C104.416 148.346 102.101 146.799 100.151 144.849C98.2007 142.899 96.6539 140.584 95.5985 138.036C94.5432 135.489 94 132.758 94 130L115 130H136Z" fill="url(#paint3_linear_7_4523)"/>
<path fill-rule="evenodd" clip-rule="evenodd" d="M126.759 147.399C125.591 148.188 124.345 148.86 123.036 149.401C120.489 150.457 117.758 151 115 151C112.242 151 109.512 150.457 106.964 149.401C105.655 148.86 104.409 148.188 103.241 147.399C105.735 143.548 110.07 141 115 141C119.93 141 124.265 143.548 126.759 147.399Z" fill="#EF5350"/>
<path d="M100 130H130C130 133.314 127.314 136 124 136H106C102.686 136 100 133.314 100 130Z" fill="white"/>
<circle cx="132.5" cy="112.5" r="7.5" fill="black"/>
<circle cx="135.5" cy="110.5" r="2.5" fill="white"/>
<circle cx="134" cy="115" r="1" fill="white"/>
<circle cx="97.5" cy="112.5" r="7.5" fill="black"/>
<circle cx="100.5" cy="110.5" r="2.5" fill="white"/>
<circle cx="99" cy="115" r="1" fill="white"/>
<path d="M134.5 79.5L137 82L153.5 61.5L134.5 79.5Z" fill="#FF8A65"/>
<path d="M93.2984 81.6627L76.2858 62.0835C61.4427 67.9837 77.6087 117.17 79.355 124.234L83.0591 81.2394L93.2984 81.6627Z" fill="#B71C1C"/>
<path d="M137 82L153.5 61.5C168.343 67.4002 152.38 117.17 150.634 124.235L146.93 87.8011L137 82Z" fill="#B71C1C"/>
<path d="M151 78L142 78.8515V94.837C145.355 94.837 148.044 97.5233 148.044 100.875V111.754V111.78V126.995C148.044 128.644 149.376 129.973 151 130V78Z" fill="#B71C1C"/>
<path d="M79 78L88 78.8515V94.837C84.645 94.837 81.9555 97.5233 81.9555 100.875V111.754V111.78V126.995C81.9555 128.644 80.6243 129.973 79 130V78Z" fill="#B71C1C"/>
<path d="M153.5 61.5L138.577 76.4771C126.221 88.8331 104.049 88.2242 93.8894 86.5044C76.1887 83.5146 68.3306 71.9525 66.5579 63.036C64.0973 50.6006 67.5897 40.4937 80.5543 27.5292C77.247 39.8587 81.1099 48.2459 86.3752 52.2941C84.867 39.4882 91.561 29.8575 100.372 27C91.4023 42.9544 113.151 46.0496 119.104 44.9648C136.302 41.8163 149.902 44.8842 153.5 61.5Z" fill="#F44336"/>
<path d="M75 106C75 103.791 76.7909 102 79 102V123C76.7909 123 75 121.209 75 119V106Z" fill="#FFAB91"/>
<path d="M155 106C155 103.791 153.209 102 151 102V123C153.209 123 155 121.209 155 119V106Z" fill="#FFAB91"/>
</g>
<defs>
<filter id="filter0_i_7_4523" x="-1" y="-17" width="232" height="248" filterUnits="userSpaceOnUse" color-interpolation-filters="sRGB">
<feFlood flood-opacity="0" result="BackgroundImageFix"/>
<feBlend mode="normal" in="SourceGraphic" in2="BackgroundImageFix" result="shape"/>
<feColorMatrix in="SourceAlpha" type="matrix" values="0 0 0 0 0 0 0 0 0 0 0 0 0 0 0 0 0 0 127 0" result="hardAlpha"/>
<feOffset dy="-16"/>
<feGaussianBlur stdDeviation="24"/>
<feComposite in2="hardAlpha" operator="arithmetic" k2="-1" k3="1"/>
<feColorMatrix type="matrix" values="0 0 0 0 0.26481 0 0 0 0 0.12 0 0 0 0 1 0 0 0 0.56 0"/>
<feBlend mode="normal" in2="shape" result="effect1_innerShadow_7_4523"/>
</filter>
<linearGradient id="paint0_linear_7_4523" x1="114.993" y1="166.004" x2="114.993" y2="182.929" gradientUnits="userSpaceOnUse">
<stop stop-color="#7E57C2"/>
<stop offset="1" stop-color="#512DA8"/>
</linearGradient>
<linearGradient id="paint1_linear_7_4523" x1="115.007" y1="109.001" x2="115.007" y2="189.443" gradientUnits="userSpaceOnUse">
<stop stop-color="#E64A19"/>
<stop offset="1" stop-color="#FFCCBC"/>
</linearGradient>
<linearGradient id="paint2_linear_7_4523" x1="114.993" y1="130.124" x2="114.993" y2="113.602" gradientUnits="userSpaceOnUse">
<stop stop-color="#FFCCBC"/>
<stop offset="1" stop-color="#FF8A65"/>
</linearGradient>
<linearGradient id="paint3_linear_7_4523" x1="116" y1="130" x2="116" y2="135.5" gradientUnits="userSpaceOnUse">
<stop stop-color="#FF7043"/>
<stop offset="1" stop-color="#FFAB91"/>
</linearGradient>
<clipPath id="clip0_7_4523">
<path d="M0 115C0 51.4873 51.4873 0 115 0C178.513 0 230 51.4873 230 115C230 178.513 178.513 230 115 230C51.4873 230 0 178.513 0 115Z" fill="white"/>
</clipPath>
</defs>
</svg>
