<svg width="230" height="230" viewBox="0 0 230 230" fill="none" xmlns="http://www.w3.org/2000/svg">
<g clip-path="url(#clip0_7_3614)">
<path d="M0 115C0 51.4873 51.4873 0 115 0C178.513 0 230 51.4873 230 115C230 178.513 178.513 230 115 230C51.4873 230 0 178.513 0 115Z" fill="white"/>
<g filter="url(#filter0_i_7_3614)">
<circle cx="115" cy="115" r="116" fill="white"/>
</g>
<path d="M48 198C48 180.327 62.3269 166 80 166H150C167.673 166 182 180.327 182 198V230H48V198Z" fill="url(#paint0_linear_7_3614)"/>
<path d="M146 166C146 170.071 145.198 174.102 143.64 177.863C142.082 181.624 139.799 185.042 136.92 187.92C134.042 190.799 130.624 193.082 126.863 194.64C123.102 196.198 119.071 197 115 197C110.929 197 106.898 196.198 103.137 194.64C99.3757 193.082 95.9583 190.799 93.0797 187.92C90.2011 185.042 87.9176 181.624 86.3597 177.863C84.8018 174.102 84 170.071 84 166L115 166H146Z" fill="#47001D"/>
<rect x="92" y="109" width="46" height="80" rx="23" fill="url(#paint1_linear_7_3614)"/>
<rect x="79" y="58" width="72" height="108" rx="36" fill="url(#paint2_linear_7_3614)"/>
<path d="M136 130C136 132.758 135.457 135.489 134.401 138.036C133.346 140.584 131.799 142.899 129.849 144.849C127.899 146.799 125.584 148.346 123.036 149.401C120.489 150.457 117.758 151 115 151C112.242 151 109.511 150.457 106.964 149.401C104.416 148.346 102.101 146.799 100.151 144.849C98.2007 142.899 96.6539 140.584 95.5985 138.036C94.5432 135.489 94 132.758 94 130L115 130H136Z" fill="url(#paint3_linear_7_3614)"/>
<path fill-rule="evenodd" clip-rule="evenodd" d="M126.759 147.399C125.591 148.188 124.345 148.86 123.036 149.401C120.489 150.457 117.758 151 115 151C112.242 151 109.512 150.457 106.964 149.401C105.655 148.86 104.409 148.188 103.241 147.399C105.735 143.548 110.07 141 115 141C119.93 141 124.265 143.548 126.759 147.399Z" fill="#EF5350"/>
<path d="M100 130H130C130 133.314 127.314 136 124 136H106C102.686 136 100 133.314 100 130Z" fill="white"/>
<circle cx="132.5" cy="112.5" r="7.5" fill="black"/>
<circle cx="135.5" cy="110.5" r="2.5" fill="white"/>
<circle cx="134" cy="115" r="1" fill="white"/>
<circle cx="97.5" cy="112.5" r="7.5" fill="black"/>
<circle cx="100.5" cy="110.5" r="2.5" fill="white"/>
<circle cx="99" cy="115" r="1" fill="white"/>
<path fill-rule="evenodd" clip-rule="evenodd" d="M104.055 17.0793C104.505 17.0264 104.955 17 105.404 17H105.748C106.066 17 106.383 17.0263 106.674 17.0527C106.78 17.0659 106.893 17.0792 107.005 17.0925C107.118 17.1058 107.23 17.1191 107.336 17.1323C107.459 17.1569 107.582 17.1757 107.702 17.1942C107.84 17.2155 107.976 17.2362 108.103 17.2646C108.206 17.2792 108.3 17.302 108.391 17.3238C108.464 17.3414 108.535 17.3585 108.606 17.3703C108.87 17.4232 109.161 17.5025 109.426 17.5819C109.566 17.642 109.707 17.687 109.836 17.7283C109.877 17.7415 109.917 17.7543 109.955 17.7671C110.002 17.7828 110.05 17.7984 110.099 17.8143C110.297 17.8788 110.505 17.9468 110.696 18.0317C110.789 18.0714 110.875 18.1111 110.961 18.1509C111.047 18.1906 111.133 18.2303 111.225 18.2699C111.316 18.3152 111.403 18.3574 111.489 18.3986C111.653 18.4777 111.809 18.5532 111.966 18.6402C112.124 18.7191 112.256 18.7982 112.387 18.8771L112.389 18.8784C112.654 19.0372 112.919 19.196 113.183 19.3812C113.315 19.4606 113.421 19.5398 113.527 19.6192L114.241 20.175C114.294 20.2279 114.354 20.2808 114.413 20.3336C114.473 20.3865 114.532 20.4394 114.585 20.4923C114.824 20.704 115.062 20.9156 115.273 21.1538C115.326 21.18 115.352 21.2065 115.379 21.2328L115.379 21.2333C117.946 18.5346 121.491 17 125.222 17C132.524 17 138.53 22.7944 138.821 30.0969C140.911 28.1125 143.663 27.0012 146.547 27.0012C152.738 27.0012 157.765 32.0281 157.765 38.2194C157.739 40.2302 157.183 42.2146 156.151 43.9609C158.189 42.1353 160.835 41.1298 163.56 41.1298C169.751 41.1298 174.778 46.157 174.778 52.3482C174.778 55.2851 173.614 58.0896 171.577 60.1798C172.317 59.9946 173.085 59.8889 173.852 59.8889C179.011 59.8889 183.192 64.0692 183.192 69.2286C183.192 72.8269 181.102 76.1077 177.847 77.6423C177.847 77.6555 177.854 77.6688 177.86 77.6821C177.867 77.6954 177.874 77.7086 177.874 77.7219C182.213 77.8277 185.679 81.3995 185.679 85.7387C185.679 89.2841 183.351 92.4325 179.964 93.438V93.7819V93.8878C183.271 94.4699 185.679 97.3538 185.679 100.714C185.679 103.889 183.509 106.641 180.44 107.408C181.975 108.731 182.848 110.636 182.848 112.647C182.848 116.219 180.096 119.209 176.524 119.526C177.583 120.77 178.138 122.33 178.138 123.944C178.138 127.543 175.387 130.532 171.788 130.824C172.053 131.538 172.185 132.332 172.185 133.099C172.185 136.909 169.09 140.005 165.28 140.005C164.459 140.005 163.639 139.872 162.872 139.581C163.004 140.111 163.083 140.693 163.083 141.248C163.083 145.058 159.988 148.154 156.178 148.154C154.617 148.154 153.109 147.625 151.892 146.672C149.389 148.376 146.781 149.893 144.087 151.216C148.434 145.267 151 137.933 151 130V94C151 74.1178 134.882 58 115 58C95.1177 58 79 74.1177 79 94V130C79 137.278 81.1597 144.052 84.8733 149.715C82.9595 148.65 81.0956 147.485 79.29 146.222C77.9936 147.466 76.2737 148.154 74.501 148.154C70.691 148.154 67.5954 145.058 67.5954 141.248C67.5954 140.693 67.6747 140.137 67.807 139.581C67.0397 139.846 66.2196 140.005 65.3994 140.005C61.5894 140.005 58.4937 136.909 58.4937 133.099C58.4937 132.332 58.626 131.564 58.8906 130.824C55.3187 130.532 52.5406 127.543 52.5406 123.944C52.5406 122.33 53.1227 120.77 54.1546 119.526C50.5827 119.235 47.831 116.219 47.831 112.647C47.831 110.636 48.7041 108.731 50.2387 107.408C47.1695 106.667 45 103.889 45 100.714C45 96.904 48.0957 93.8085 51.9057 93.8085V93.7292C47.9634 93.1735 45 89.7869 45 85.7917C45 81.3467 48.5718 77.7747 52.9903 77.7482C49.6301 76.2401 47.4606 72.9063 47.4606 69.2286C47.4606 64.0692 51.6411 59.8889 56.8004 59.8889C57.5677 59.8889 58.3349 59.9946 59.0758 60.1798C57.012 58.0896 55.8744 55.2851 55.8744 52.3482C55.8744 46.157 60.9015 41.1298 67.0927 41.1298C69.8179 41.1562 72.4637 42.1617 74.501 43.9609C73.4427 42.2411 72.8871 40.2567 72.8871 38.2194C72.8871 32.0281 77.9141 27.0012 84.1054 27.0012C86.9629 27.0012 89.7146 28.1125 91.8048 30.0969C92.0693 23.3235 97.3081 17.7672 104.055 17.0793Z" fill="black"/>
<path d="M156.223 53.2744L77.192 53.8299C77.192 53.8299 66 84.5481 66 90.66C66 97.0629 71.1859 102.249 77.5888 102.249C82.9599 102.249 87.6165 98.5446 88.86 93.3058C90.2623 93.8879 91.7704 94.1789 93.2786 94.1789C98.8877 94.1789 103.624 90.1574 104.656 84.7335C107.222 87.0089 110.45 88.3846 113.89 88.6756C113.89 88.6756 113.89 88.6756 113.916 88.6756C114.313 88.7021 114.71 88.7286 115.133 88.7286H115.16H115.186C119.023 88.7286 122.7 87.3263 125.584 84.8128C126.643 90.2103 131.352 94.1789 136.935 94.1789C138.443 94.1789 139.951 93.8879 141.353 93.3058C142.57 98.5446 147.254 102.249 152.625 102.249C159.028 102.249 164.213 97.0629 164.213 90.66C164.108 84.2571 156.223 53.2744 156.223 53.2744Z" fill="black"/>
<path d="M153.782 88.2523C151.057 68.9377 132.695 57.0315 115.391 57.0315C98.1137 57.0315 79.7517 68.9113 77 88.2523" stroke="#C837AB" stroke-width="5" stroke-linecap="round"/>
<path d="M75 106C75 103.791 76.7909 102 79 102V123C76.7909 123 75 121.209 75 119V106Z" fill="#4E342E"/>
<path d="M155 106C155 103.791 153.209 102 151 102V123C153.209 123 155 121.209 155 119V106Z" fill="#4E342E"/>
</g>
<defs>
<filter id="filter0_i_7_3614" x="-1" y="-17" width="232" height="248" filterUnits="userSpaceOnUse" color-interpolation-filters="sRGB">
<feFlood flood-opacity="0" result="BackgroundImageFix"/>
<feBlend mode="normal" in="SourceGraphic" in2="BackgroundImageFix" result="shape"/>
<feColorMatrix in="SourceAlpha" type="matrix" values="0 0 0 0 0 0 0 0 0 0 0 0 0 0 0 0 0 0 127 0" result="hardAlpha"/>
<feOffset dy="-16"/>
<feGaussianBlur stdDeviation="24"/>
<feComposite in2="hardAlpha" operator="arithmetic" k2="-1" k3="1"/>
<feColorMatrix type="matrix" values="0 0 0 0 0.26481 0 0 0 0 0.12 0 0 0 0 1 0 0 0 0.56 0"/>
<feBlend mode="normal" in2="shape" result="effect1_innerShadow_7_3614"/>
</filter>
<linearGradient id="paint0_linear_7_3614" x1="114.993" y1="166.01" x2="114.993" y2="182.936" gradientUnits="userSpaceOnUse">
<stop stop-color="#AA0044"/>
<stop offset="1" stop-color="#550022"/>
</linearGradient>
<linearGradient id="paint1_linear_7_3614" x1="115.007" y1="150" x2="115.007" y2="189.443" gradientUnits="userSpaceOnUse">
<stop stop-color="#4E342E"/>
<stop offset="1" stop-color="#80564C"/>
</linearGradient>
<linearGradient id="paint2_linear_7_3614" x1="114.993" y1="130.127" x2="115" y2="94.5" gradientUnits="userSpaceOnUse">
<stop stop-color="#6D4C41"/>
<stop offset="1" stop-color="#3E2723"/>
</linearGradient>
<linearGradient id="paint3_linear_7_3614" x1="116" y1="130" x2="116" y2="140" gradientUnits="userSpaceOnUse">
<stop stop-color="#33221E"/>
<stop offset="1" stop-color="#50352F"/>
</linearGradient>
<clipPath id="clip0_7_3614">
<path d="M0 115C0 51.4873 51.4873 0 115 0C178.513 0 230 51.4873 230 115C230 178.513 178.513 230 115 230C51.4873 230 0 178.513 0 115Z" fill="white"/>
</clipPath>
</defs>
</svg>
